<mxfile host="65bd71144e">
    <diagram id="k0cZbWFSn-OgtZVFj_qc" name="Microservice Architecture">
        <mxGraphModel dx="802" dy="749" grid="1" gridSize="10" guides="1" tooltips="1" connect="1" arrows="1" fold="1" page="1" pageScale="1" pageWidth="850" pageHeight="1100" math="0" shadow="0">
            <root>
                <mxCell id="0"/>
                <mxCell id="1" parent="0"/>
                <mxCell id="24" value="Product Controller" style="rounded=0;whiteSpace=wrap;html=1;strokeColor=#000000;fillColor=#e0d0f0;fontColor=#000000;" vertex="1" connectable="0" parent="1">
                    <mxGeometry x="30" y="50" width="160" height="80" as="geometry"/>
                </mxCell>
                <mxCell id="25" value="Product Service" style="rounded=0;whiteSpace=wrap;html=1;strokeColor=#000000;fillColor=#d0e0f0;fontColor=#000000;" vertex="1" connectable="0" parent="1">
                    <mxGeometry x="240" y="50" width="160" height="80" as="geometry"/>
                </mxCell>
                <mxCell id="26" value="RabbitMQ" style="rounded=0;whiteSpace=wrap;html=1;strokeColor=#000000;fillColor=#f0e0d0;fontColor=#000000;" vertex="1" connectable="0" parent="1">
                    <mxGeometry x="450" y="50" width="160" height="80" as="geometry"/>
                </mxCell>
                <mxCell id="27" value="Database" style="rounded=0;whiteSpace=wrap;html=1;strokeColor=#000000;fillColor=#d0f0d0;fontColor=#000000;" vertex="1" connectable="0" parent="1">
                    <mxGeometry x="660" y="90" width="160" height="80" as="geometry"/>
                </mxCell>
                <mxCell id="28" value="Producer" style="rounded=0;whiteSpace=wrap;html=1;strokeColor=#000000;fillColor=#d0d0f0;fontColor=#000000;" vertex="1" connectable="0" parent="1">
                    <mxGeometry x="480" y="220" width="160" height="80" as="geometry"/>
                </mxCell>
                <mxCell id="29" value="Consumer" style="rounded=0;whiteSpace=wrap;html=1;strokeColor=#000000;fillColor=#f0d0d0;fontColor=#000000;" vertex="1" connectable="0" parent="1">
                    <mxGeometry x="330" y="330" width="160" height="80" as="geometry"/>
                </mxCell>
                <mxCell id="30" style="edgeStyle=orthogonalEdgeStyle;rounded=0;orthogonalLoop=1;jettySize=auto;exitX=1;exitY=0.5;entryX=0;entryY=0.5;strokeColor=#FFFFFF;fillColor=#FFFFFF;" edge="1" parent="1" source="24" target="25">
                    <mxGeometry relative="1" as="geometry"/>
                </mxCell>
                <mxCell id="31" style="edgeStyle=orthogonalEdgeStyle;rounded=0;orthogonalLoop=1;jettySize=auto;exitX=1;exitY=0.5;entryX=0;entryY=0.5;strokeColor=#FFFFFF;fillColor=#FFFFFF;" edge="1" parent="1" source="25" target="26">
                    <mxGeometry relative="1" as="geometry"/>
                </mxCell>
                <mxCell id="32" style="edgeStyle=orthogonalEdgeStyle;rounded=0;orthogonalLoop=1;jettySize=auto;exitX=0.5;exitY=1;entryX=0.5;entryY=0;strokeColor=#FFFFFF;fillColor=#FFFFFF;" edge="1" parent="1" source="26" target="27">
                    <mxGeometry relative="1" as="geometry"/>
                </mxCell>
                <mxCell id="33" style="edgeStyle=orthogonalEdgeStyle;rounded=0;orthogonalLoop=1;jettySize=auto;exitX=0.5;exitY=1;entryX=0.5;entryY=0;strokeColor=#FFFFFF;fillColor=#FFFFFF;" edge="1" parent="1" source="25" target="28">
                    <mxGeometry relative="1" as="geometry"/>
                </mxCell>
                <mxCell id="34" style="edgeStyle=orthogonalEdgeStyle;rounded=0;orthogonalLoop=1;jettySize=auto;exitX=0.5;exitY=1;entryX=0.5;entryY=0;strokeColor=#FFFFFF;fillColor=#FFFFFF;" edge="1" parent="1" source="25" target="29">
                    <mxGeometry relative="1" as="geometry"/>
                </mxCell>
                <mxCell id="35" style="edgeStyle=orthogonalEdgeStyle;rounded=0;orthogonalLoop=1;jettySize=auto;exitX=0.5;exitY=1;entryX=0.5;entryY=0;strokeColor=#FFFFFF;fillColor=#FFFFFF;" edge="1" parent="1" source="28" target="29">
                    <mxGeometry relative="1" as="geometry"/>
                </mxCell>
            </root>
        </mxGraphModel>
    </diagram>
</mxfile>